PathFileType	4	(X/Y/Z)	output.trc
DataRate	CameraRate	NumFrames	NumMarkers	Units	OrigDataRate	OrigDataStartFrame	OrigNumFrames
100	100	15	23	m	100	3773	5030
Frame#	Time	C7			T8			EL			EM			US			RS			AA			Fore_Clus_1			Fore_Clus_2			Fore_Clus_3			Fore_Clus_4			Hum_Clus_1			Hum_Clus_2			Hum_Clus_3			Hum_Clus_4			Thor_Clus_1			Thor_Clus_2			Thor_Clus_3			Thor_Clus_4			IJ			PX			GH			Thor_Clus_5		
		X1	Y1	Z1	X2	Y2	Z2	X3	Y3	Z3	X4	Y4	Z4	X5	Y5	Z5	X6	Y6	Z6	X7	Y7	Z7	X8	Y8	Z8	X9	Y9	Z9	X10	Y10	Z10	X11	Y11	Z11	X12	Y12	Z12	X13	Y13	Z13	X14	Y14	Z14	X15	Y15	Z15	X16	Y16	Z16	X17	Y17	Z17	X18	Y18	Z18	X19	Y19	Z19	X20	Y20	Z20	X21	Y21	Z21	X22	Y22	Z22	X23	Y23	Z23
3772	37.720000	-0.007290	1.347547	-0.114292	-0.010087	1.144994	-0.134669	-0.194606	1.008045	-0.005283	-0.152041	0.994820	-0.039702	-0.240878	0.784551	0.033232	-0.206359	0.783898	0.067527	-0.151727	1.263051	-0.022943	-0.257616	0.840208	0.049369	-0.265988	0.787726	0.061958	-0.245116	0.789231	0.080665	-0.224104	0.842981	0.079592	-0.205120	1.089867	0.030204	-0.223007	1.102648	-0.025915	-0.224370	1.166274	-0.022455	-0.198874	1.163832	0.030519	0.090229	1.263262	0.019628	0.043481	1.215158	0.070764	0.049085	1.260669	0.035902	0.103501	1.218086	0.046932	0.033472	1.283212	-0.028551	0.061912	1.094007	0.042505	-0.129045	1.258783	-0.029635	0.038011	1.234766	0.058671
3773	37.730000	-0.007472	1.347597	-0.114318	-0.010355	1.145051	-0.134756	-0.194697	1.008230	-0.005534	-0.152471	0.995146	-0.040420	-0.238344	0.784119	0.033022	-0.203412	0.783719	0.066900	-0.151912	1.263129	-0.022947	-0.255447	0.839593	0.049421	-0.263147	0.787008	0.062015	-0.242154	0.788673	0.080464	-0.221562	0.842466	0.079192	-0.204809	1.089879	0.030519	-0.223228	1.102960	-0.025319	-0.224550	1.166560	-0.021563	-0.198540	1.163814	0.031120	0.090073	1.263235	0.019542	0.043272	1.215137	0.070667	0.048924	1.260661	0.035831	0.103334	1.218036	0.046819	0.033294	1.283220	-0.028610	0.061683	1.093981	0.042378	-0.129177	1.259039	-0.029255	0.037899	1.234765	0.058593
3774	37.740000	-0.007644	1.347661	-0.114344	-0.010610	1.145124	-0.134855	-0.194833	1.008436	-0.005760	-0.152940	0.995475	-0.041093	-0.235909	0.783736	0.032784	-0.200608	0.783605	0.066280	-0.152092	1.263216	-0.022965	-0.253371	0.838929	0.049359	-0.260399	0.786362	0.061912	-0.239211	0.788088	0.080158	-0.219215	0.842243	0.078854	-0.204567	1.089911	0.030768	-0.223408	1.103273	-0.024814	-0.224689	1.166866	-0.020737	-0.198219	1.163872	0.031740	0.089949	1.263215	0.019449	0.043240	1.214950	0.070508	0.048807	1.260641	0.035755	0.103158	1.217967	0.046693	0.033120	1.283237	-0.028670	0.061455	1.093962	0.042241	-0.129287	1.259291	-0.028910	0.037717	1.234709	0.058493
3775	37.750000	-0.007798	1.347759	-0.114358	-0.010850	1.145234	-0.134974	-0.194999	1.008655	-0.005963	-0.153435	0.995805	-0.041722	-0.233573	0.783397	0.032508	-0.197946	0.783546	0.065656	-0.152264	1.263325	-0.022996	-0.251446	0.838361	0.049199	-0.257906	0.785717	0.061721	-0.236606	0.787764	0.079773	-0.217167	0.841984	0.078470	-0.204346	1.089967	0.030971	-0.223642	1.103616	-0.024355	-0.224817	1.167192	-0.019973	-0.197924	1.163909	0.032284	0.089796	1.263168	0.019338	0.043091	1.214928	0.070419	0.048663	1.260628	0.035685	0.103003	1.217890	0.046566	0.032955	1.283274	-0.028726	0.061227	1.093950	0.042082	-0.129379	1.259539	-0.028593	0.037582	1.234690	0.058420
3776	37.760000	-0.007952	1.347866	-0.114369	-0.011083	1.145354	-0.135098	-0.195186	1.008884	-0.006145	-0.153945	0.996133	-0.042311	-0.231341	0.783096	0.032190	-0.195428	0.783532	0.065027	-0.152433	1.263435	-0.023029	-0.249589	0.837835	0.049113	-0.255566	0.785105	0.061636	-0.234005	0.787233	0.079491	-0.215208	0.841764	0.078179	-0.204141	1.090070	0.031197	-0.223891	1.103971	-0.023943	-0.224933	1.167530	-0.019247	-0.197584	1.163995	0.032778	0.089641	1.263113	0.019226	0.042914	1.214965	0.070342	0.048515	1.260628	0.035618	0.102846	1.217826	0.046450	0.032793	1.283318	-0.028780	0.061007	1.093944	0.041917	-0.129461	1.259782	-0.028299	0.037397	1.234643	0.058300
3777	37.770000	-0.008106	1.347983	-0.114374	-0.011311	1.145485	-0.135224	-0.195382	1.009116	-0.006309	-0.154455	0.996458	-0.042862	-0.229214	0.782830	0.031825	-0.193056	0.783554	0.064387	-0.152599	1.263547	-0.023058	-0.247745	0.837352	0.049099	-0.253205	0.784619	0.061629	-0.231431	0.786862	0.079196	-0.213173	0.841475	0.077955	-0.203953	1.090210	0.031444	-0.224153	1.104367	-0.023507	-0.225043	1.167872	-0.018535	-0.197256	1.164111	0.033239	0.089367	1.263141	0.019106	0.042721	1.215025	0.070300	0.048348	1.260601	0.035595	0.102701	1.217797	0.046350	0.032632	1.283370	-0.028832	0.060794	1.093944	0.041746	-0.129536	1.260021	-0.028022	0.037289	1.234652	0.058245
3778	37.780000	-0.008261	1.348110	-0.114372	-0.011534	1.145626	-0.135352	-0.195575	1.009346	-0.006457	-0.154951	0.996778	-0.043376	-0.227195	0.782592	0.031413	-0.190828	0.783599	0.063733	-0.152761	1.263661	-0.023079	-0.245946	0.837014	0.049123	-0.250855	0.784265	0.061716	-0.228853	0.786594	0.078945	-0.210873	0.841235	0.077299	-0.203773	1.090339	0.031721	-0.224422	1.104740	-0.022998	-0.225144	1.168220	-0.017815	-0.196959	1.164238	0.033682	0.089664	1.262708	0.019234	0.042591	1.214990	0.070229	0.048167	1.260660	0.035392	0.102547	1.217771	0.046237	0.032475	1.283428	-0.028880	0.060592	1.093948	0.041570	-0.129611	1.260256	-0.027756	0.037072	1.234590	0.058131
3779	37.790000	-0.008431	1.348222	-0.114371	-0.011763	1.145751	-0.135465	-0.195757	1.009570	-0.006592	-0.155422	0.997091	-0.043858	-0.225289	0.782378	0.030956	-0.188745	0.783659	0.063066	-0.152925	1.263758	-0.023082	-0.244233	0.836692	0.049131	-0.248679	0.783899	0.061744	-0.226496	0.786331	0.078653	-0.208975	0.841135	0.077022	-0.203596	1.090464	0.031976	-0.224638	1.105060	-0.022481	-0.225230	1.168536	-0.017150	-0.196658	1.164371	0.034125	0.089209	1.262829	0.019187	0.042472	1.214995	0.070163	0.048001	1.260674	0.035319	0.102401	1.217755	0.046136	0.032315	1.283481	-0.028928	0.060404	1.093954	0.041406	-0.129689	1.260485	-0.027499	0.036936	1.234614	0.058106
3780	37.800000	-0.008606	1.348334	-0.114365	-0.011994	1.145875	-0.135570	-0.195917	1.009782	-0.006717	-0.155856	0.997393	-0.044307	-0.223497	0.782184	0.030453	-0.186804	0.783724	0.062381	-0.153085	1.263853	-0.023067	-0.242681	0.836314	0.049092	-0.246617	0.783548	0.061583	-0.224241	0.786075	0.078271	-0.207191	0.840926	0.076640	-0.203433	1.090563	0.032240	-0.224843	1.105359	-0.022023	-0.225340	1.168820	-0.016467	-0.196393	1.164446	0.034550	0.089089	1.262825	0.019108	0.042334	1.214988	0.070119	0.047839	1.260683	0.035272	0.102255	1.217763	0.046046	0.032157	1.283536	-0.028973	0.060229	1.093963	0.041244	-0.129775	1.260709	-0.027245	0.036700	1.234579	0.057988
3781	37.810000	-0.008798	1.348421	-0.114363	-0.012235	1.145973	-0.135653	-0.196048	1.009979	-0.006835	-0.156242	0.997684	-0.044725	-0.221823	0.782004	0.029915	-0.185003	0.783783	0.061684	-0.153245	1.263929	-0.023027	-0.241269	0.835994	0.048767	-0.244818	0.783212	0.061339	-0.222236	0.785661	0.077857	-0.205546	0.840771	0.076220	-0.203240	1.090643	0.032434	-0.225005	1.105587	-0.021685	-0.225428	1.169049	-0.015955	-0.196145	1.164505	0.034912	0.088931	1.262843	0.019028	0.042239	1.215009	0.070057	0.047699	1.260700	0.035201	0.102138	1.217754	0.045940	0.031997	1.283579	-0.029021	0.060070	1.093971	0.041100	-0.129873	1.260927	-0.026993	0.036611	1.234597	0.057934
3782	37.820000	-0.009004	1.348487	-0.114365	-0.012487	1.146046	-0.135716	-0.196145	1.010155	-0.006948	-0.156574	0.997959	-0.045116	-0.220269	0.781835	0.029346	-0.183339	0.783830	0.060975	-0.153404	1.263989	-0.022960	-0.240127	0.835660	0.048360	-0.243247	0.782896	0.060816	-0.220536	0.785298	0.077364	-0.204370	0.840740	0.075812	-0.203052	1.090634	0.032550	-0.225149	1.105762	-0.021385	-0.225537	1.169212	-0.015487	-0.195951	1.164511	0.035238	0.088858	1.262818	0.018928	0.042156	1.215024	0.069993	0.047580	1.260726	0.035123	0.102019	1.217791	0.045811	0.031837	1.283612	-0.029070	0.059926	1.093978	0.040974	-0.129984	1.261136	-0.026743	0.036475	1.234602	0.057853
3783	37.830000	-0.009218	1.348534	-0.114371	-0.012748	1.146097	-0.135760	-0.196204	1.010309	-0.007059	-0.156845	0.998217	-0.045478	-0.218835	0.781673	0.028754	-0.181808	0.783859	0.060257	-0.153559	1.264039	-0.022870	-0.239001	0.835314	0.047598	-0.241849	0.782521	0.060112	-0.219146	0.785120	0.076641	-0.203412	0.840743	0.074893	-0.202869	1.090618	0.032641	-0.225250	1.105898	-0.021130	-0.225612	1.169336	-0.015019	-0.195792	1.164464	0.035514	0.088461	1.263103	0.018744	0.042078	1.215049	0.069927	0.047476	1.260757	0.035056	0.101884	1.217792	0.045676	0.031681	1.283636	-0.029121	0.059796	1.093983	0.040863	-0.130111	1.261335	-0.026493	0.036402	1.234623	0.057782
3784	37.840000	-0.009450	1.348542	-0.114392	-0.013024	1.146105	-0.135774	-0.196222	1.010436	-0.007168	-0.157055	0.998454	-0.045816	-0.217524	0.781514	0.028152	-0.180408	0.783862	0.059538	-0.153713	1.264065	-0.022751	-0.238104	0.834957	0.046811	-0.240488	0.782122	0.059289	-0.217964	0.784925	0.075978	-0.202877	0.840831	0.074308	-0.202686	1.090590	0.032716	-0.225307	1.106015	-0.020923	-0.225680	1.169458	-0.014587	-0.195645	1.164417	0.035769	0.088338	1.263156	0.018599	0.042004	1.215083	0.069848	0.047364	1.260788	0.034961	0.101784	1.217808	0.045531	0.031523	1.283640	-0.029179	0.059682	1.093985	0.040780	-0.130253	1.261523	-0.026250	0.036289	1.234599	0.057695
3785	37.850000	-0.009682	1.348534	-0.114418	-0.013306	1.146096	-0.135773	-0.196200	1.010537	-0.007274	-0.157200	0.998667	-0.046127	-0.216334	0.781356	0.027546	-0.179133	0.783839	0.058821	-0.153860	1.264088	-0.022615	-0.237180	0.834653	0.046098	-0.239296	0.781753	0.058482	-0.216819	0.784663	0.075247	-0.202080	0.840637	0.073707	-0.202514	1.090571	0.032798	-0.225338	1.106124	-0.020731	-0.225731	1.169539	-0.014232	-0.195523	1.164395	0.035995	0.088227	1.263171	0.018482	0.041929	1.215097	0.069754	0.047258	1.260818	0.034882	0.101668	1.217815	0.045373	0.031372	1.283636	-0.029242	0.059580	1.093985	0.040710	-0.130410	1.261696	-0.026012	0.036227	1.234627	0.057624
3786	37.860000	-0.009922	1.348494	-0.114460	-0.013599	1.146049	-0.135750	-0.196139	1.010609	-0.007379	-0.157288	0.998856	-0.046415	-0.215263	0.781196	0.026951	-0.177979	0.783787	0.058117	-0.154002	1.264094	-0.022461	-0.236274	0.834277	0.045436	-0.238214	0.781399	0.057742	-0.215551	0.784299	0.074310	-0.201326	0.840441	0.073108	-0.202350	1.090537	0.032868	-0.225368	1.106203	-0.020541	-0.225765	1.169616	-0.013898	-0.195414	1.164373	0.036224	0.088150	1.263169	0.018363	0.041846	1.215108	0.069675	0.047174	1.260835	0.034795	0.101589	1.217810	0.045243	0.031224	1.283616	-0.029313	0.059489	1.093982	0.040662	-0.130582	1.261854	-0.025786	0.036203	1.234661	0.057569
